<svg width="24" height="24" viewBox="0 0 24 24" fill="none" xmlns="http://www.w3.org/2000/svg">
<path d="M4 4C3.20435 4 2.44129 4.31607 1.87868 4.87868C1.31607 5.44129 1 6.20435 1 7V17C1 17.7956 1.31607 18.5587 1.87868 19.1213C2.44129 19.6839 3.20435 20 4 20H11C11.2652 20 11.5196 19.8946 11.7071 19.7071C11.8946 19.5196 12 19.2652 12 19C12 18.7348 11.8946 18.4804 11.7071 18.2929C11.5196 18.1054 11.2652 18 11 18H4C3.73478 18 3.48043 17.8946 3.29289 17.7071C3.10536 17.5196 3 17.2652 3 17V11H22C22.2652 11 22.5196 10.8946 22.7071 10.7071C22.8946 10.5196 23 10.2652 23 10V7C23 6.20435 22.6839 5.44129 22.1213 4.87868C21.5587 4.31607 20.7956 4 20 4H4ZM21 8H3V7C3 6.73478 3.10536 6.48043 3.29289 6.29289C3.48043 6.10536 3.73478 6 4 6H20C20.2652 6 20.5196 6.10536 20.7071 6.29289C20.8946 6.48043 21 6.73478 21 7V8Z" fill="black"/>
<path d="M18 18.586L22.293 14.293C22.4816 14.1108 22.7342 14.01 22.9964 14.0123C23.2586 14.0146 23.5094 14.1198 23.6948 14.3052C23.8802 14.4906 23.9854 14.7414 23.9877 15.0036C23.99 15.2658 23.8892 15.5184 23.707 15.707L18.707 20.707C18.6143 20.8002 18.5042 20.8741 18.3829 20.9246C18.2615 20.9751 18.1314 21.001 18 21.001C17.8686 21.001 17.7385 20.9751 17.6171 20.9246C17.4958 20.8741 17.3857 20.8002 17.293 20.707L14.293 17.707C14.1108 17.5184 14.01 17.2658 14.0123 17.0036C14.0146 16.7414 14.1198 16.4906 14.3052 16.3052C14.4906 16.1198 14.7414 16.0146 15.0036 16.0123C15.2658 16.01 15.5184 16.1108 15.707 16.293L18 18.586Z" fill="black"/>
</svg>
